<svg xmlns="http://www.w3.org/2000/svg" xmlns:xlink="http://www.w3.org/1999/xlink" contentStyleType="text/css" data-diagram-type="GANTT" height="544px" preserveAspectRatio="none" style="width:611px;height:544px;background:#FFFFFF;" version="1.1" viewBox="0 0 611 544" width="611px" zoomAndPan="magnify"><title>&#39033;&#30446;&#36827;&#24230;&#29976;&#29305;&#22270;</title><defs/><g><text fill="#000000" font-family="sans-serif" font-size="14" font-weight="bold" lengthAdjust="spacing" textLength="97.9996" x="190.5002" y="22.9951">&#39033;&#30446;&#36827;&#24230;&#29976;&#29305;&#22270;</text><text fill="#000000" font-family="sans-serif" font-size="10" lengthAdjust="spacing" textLength="14.7461" x="0.627" y="60.5791">Mo</text><text fill="#000000" font-family="sans-serif" font-size="10" lengthAdjust="spacing" textLength="12.4463" x="17.7769" y="60.5791">Tu</text><text fill="#000000" font-family="sans-serif" font-size="10" lengthAdjust="spacing" textLength="16.04" x="32" y="60.5791">We</text><text fill="#000000" font-family="sans-serif" font-size="10" lengthAdjust="spacing" textLength="12.4463" x="49.7769" y="60.5791">Th</text><text fill="#000000" font-family="sans-serif" font-size="10" lengthAdjust="spacing" textLength="9.8633" x="67.0684" y="60.5791">Fr</text><text fill="#000000" font-family="sans-serif" font-size="10" lengthAdjust="spacing" textLength="12.4756" x="81.7622" y="60.5791">Sa</text><text fill="#000000" font-family="sans-serif" font-size="10" lengthAdjust="spacing" textLength="12.6855" x="97.6572" y="60.5791">Su</text><text fill="#000000" font-family="sans-serif" font-size="10" lengthAdjust="spacing" textLength="14.7461" x="112.627" y="60.5791">Mo</text><text fill="#000000" font-family="sans-serif" font-size="10" lengthAdjust="spacing" textLength="12.4463" x="129.7769" y="60.5791">Tu</text><text fill="#000000" font-family="sans-serif" font-size="10" lengthAdjust="spacing" textLength="16.04" x="144" y="60.5791">We</text><text fill="#000000" font-family="sans-serif" font-size="10" lengthAdjust="spacing" textLength="12.4463" x="161.7769" y="60.5791">Th</text><text fill="#000000" font-family="sans-serif" font-size="10" lengthAdjust="spacing" textLength="9.8633" x="179.0684" y="60.5791">Fr</text><text fill="#000000" font-family="sans-serif" font-size="10" lengthAdjust="spacing" textLength="12.4756" x="193.7622" y="60.5791">Sa</text><text fill="#000000" font-family="sans-serif" font-size="10" lengthAdjust="spacing" textLength="12.6855" x="209.6572" y="60.5791">Su</text><text fill="#000000" font-family="sans-serif" font-size="10" lengthAdjust="spacing" textLength="14.7461" x="224.627" y="60.5791">Mo</text><text fill="#000000" font-family="sans-serif" font-size="10" lengthAdjust="spacing" textLength="12.4463" x="241.7769" y="60.5791">Tu</text><text fill="#000000" font-family="sans-serif" font-size="10" lengthAdjust="spacing" textLength="16.04" x="256" y="60.5791">We</text><text fill="#000000" font-family="sans-serif" font-size="10" lengthAdjust="spacing" textLength="12.4463" x="273.7769" y="60.5791">Th</text><text fill="#000000" font-family="sans-serif" font-size="10" lengthAdjust="spacing" textLength="9.8633" x="291.0684" y="60.5791">Fr</text><text fill="#000000" font-family="sans-serif" font-size="10" lengthAdjust="spacing" textLength="12.4756" x="305.7622" y="60.5791">Sa</text><text fill="#000000" font-family="sans-serif" font-size="10" lengthAdjust="spacing" textLength="12.6855" x="321.6572" y="60.5791">Su</text><text fill="#000000" font-family="sans-serif" font-size="10" lengthAdjust="spacing" textLength="14.7461" x="336.627" y="60.5791">Mo</text><text fill="#000000" font-family="sans-serif" font-size="10" lengthAdjust="spacing" textLength="12.4463" x="353.7769" y="60.5791">Tu</text><text fill="#000000" font-family="sans-serif" font-size="10" lengthAdjust="spacing" textLength="16.04" x="368" y="60.5791">We</text><text fill="#000000" font-family="sans-serif" font-size="10" lengthAdjust="spacing" textLength="12.4463" x="385.7769" y="60.5791">Th</text><text fill="#000000" font-family="sans-serif" font-size="10" lengthAdjust="spacing" textLength="9.8633" x="403.0684" y="60.5791">Fr</text><text fill="#000000" font-family="sans-serif" font-size="10" lengthAdjust="spacing" textLength="12.4756" x="417.7622" y="60.5791">Sa</text><text fill="#000000" font-family="sans-serif" font-size="10" lengthAdjust="spacing" textLength="12.6855" x="433.6572" y="60.5791">Su</text><text fill="#000000" font-family="sans-serif" font-size="10" lengthAdjust="spacing" textLength="14.7461" x="448.627" y="60.5791">Mo</text><text fill="#000000" font-family="sans-serif" font-size="10" lengthAdjust="spacing" textLength="12.4463" x="465.7769" y="60.5791">Tu</text><text fill="#000000" font-family="sans-serif" font-size="10" lengthAdjust="spacing" textLength="12.7246" x="1.6377" y="72.5791">17</text><text fill="#000000" font-family="sans-serif" font-size="10" lengthAdjust="spacing" textLength="12.7246" x="17.6377" y="72.5791">18</text><text fill="#000000" font-family="sans-serif" font-size="10" lengthAdjust="spacing" textLength="12.7246" x="33.6377" y="72.5791">19</text><text fill="#000000" font-family="sans-serif" font-size="10" lengthAdjust="spacing" textLength="12.7246" x="49.6377" y="72.5791">20</text><text fill="#000000" font-family="sans-serif" font-size="10" lengthAdjust="spacing" textLength="12.7246" x="65.6377" y="72.5791">21</text><text fill="#000000" font-family="sans-serif" font-size="10" lengthAdjust="spacing" textLength="12.7246" x="81.6377" y="72.5791">22</text><text fill="#000000" font-family="sans-serif" font-size="10" lengthAdjust="spacing" textLength="12.7246" x="97.6377" y="72.5791">23</text><text fill="#000000" font-family="sans-serif" font-size="10" lengthAdjust="spacing" textLength="12.7246" x="113.6377" y="72.5791">24</text><text fill="#000000" font-family="sans-serif" font-size="10" lengthAdjust="spacing" textLength="12.7246" x="129.6377" y="72.5791">25</text><text fill="#000000" font-family="sans-serif" font-size="10" lengthAdjust="spacing" textLength="12.7246" x="145.6377" y="72.5791">26</text><text fill="#000000" font-family="sans-serif" font-size="10" lengthAdjust="spacing" textLength="12.7246" x="161.6377" y="72.5791">27</text><text fill="#000000" font-family="sans-serif" font-size="10" lengthAdjust="spacing" textLength="12.7246" x="177.6377" y="72.5791">28</text><text fill="#000000" font-family="sans-serif" font-size="10" lengthAdjust="spacing" textLength="12.7246" x="193.6377" y="72.5791">29</text><text fill="#000000" font-family="sans-serif" font-size="10" lengthAdjust="spacing" textLength="12.7246" x="209.6377" y="72.5791">30</text><text fill="#000000" font-family="sans-serif" font-size="10" lengthAdjust="spacing" textLength="6.3623" x="228.8188" y="72.5791">1</text><text fill="#000000" font-family="sans-serif" font-size="10" lengthAdjust="spacing" textLength="6.3623" x="244.8188" y="72.5791">2</text><text fill="#000000" font-family="sans-serif" font-size="10" lengthAdjust="spacing" textLength="6.3623" x="260.8188" y="72.5791">3</text><text fill="#000000" font-family="sans-serif" font-size="10" lengthAdjust="spacing" textLength="6.3623" x="276.8188" y="72.5791">4</text><text fill="#000000" font-family="sans-serif" font-size="10" lengthAdjust="spacing" textLength="6.3623" x="292.8188" y="72.5791">5</text><text fill="#000000" font-family="sans-serif" font-size="10" lengthAdjust="spacing" textLength="6.3623" x="308.8188" y="72.5791">6</text><text fill="#000000" font-family="sans-serif" font-size="10" lengthAdjust="spacing" textLength="6.3623" x="324.8188" y="72.5791">7</text><text fill="#000000" font-family="sans-serif" font-size="10" lengthAdjust="spacing" textLength="6.3623" x="340.8188" y="72.5791">8</text><text fill="#000000" font-family="sans-serif" font-size="10" lengthAdjust="spacing" textLength="6.3623" x="356.8188" y="72.5791">9</text><text fill="#000000" font-family="sans-serif" font-size="10" lengthAdjust="spacing" textLength="12.7246" x="369.6377" y="72.5791">10</text><text fill="#000000" font-family="sans-serif" font-size="10" lengthAdjust="spacing" textLength="12.7246" x="385.6377" y="72.5791">11</text><text fill="#000000" font-family="sans-serif" font-size="10" lengthAdjust="spacing" textLength="12.7246" x="401.6377" y="72.5791">12</text><text fill="#000000" font-family="sans-serif" font-size="10" lengthAdjust="spacing" textLength="12.7246" x="417.6377" y="72.5791">13</text><text fill="#000000" font-family="sans-serif" font-size="10" lengthAdjust="spacing" textLength="12.7246" x="433.6377" y="72.5791">14</text><text fill="#000000" font-family="sans-serif" font-size="10" lengthAdjust="spacing" textLength="12.7246" x="449.6377" y="72.5791">15</text><text fill="#000000" font-family="sans-serif" font-size="10" lengthAdjust="spacing" textLength="12.7246" x="465.6377" y="72.5791">16</text><text fill="#000000" font-family="sans-serif" font-size="12" font-weight="bold" lengthAdjust="spacing" textLength="106.9746" x="58.5127" y="48.4355">November 2025</text><text fill="#000000" font-family="sans-serif" font-size="12" font-weight="bold" lengthAdjust="spacing" textLength="106.0781" x="298.9609" y="48.4355">December 2025</text><line style="stroke:#C0C0C0;stroke-width:1;" x1="0" x2="0" y1="76.2969" y2="542"/><line style="stroke:#C0C0C0;stroke-width:1;" x1="16" x2="16" y1="76.2969" y2="542"/><line style="stroke:#C0C0C0;stroke-width:1;" x1="32" x2="32" y1="76.2969" y2="542"/><line style="stroke:#C0C0C0;stroke-width:1;" x1="48" x2="48" y1="76.2969" y2="542"/><line style="stroke:#C0C0C0;stroke-width:1;" x1="64" x2="64" y1="76.2969" y2="542"/><line style="stroke:#C0C0C0;stroke-width:1;" x1="80" x2="80" y1="76.2969" y2="542"/><line style="stroke:#C0C0C0;stroke-width:1;" x1="96" x2="96" y1="76.2969" y2="542"/><line style="stroke:#C0C0C0;stroke-width:1;" x1="112" x2="112" y1="76.2969" y2="542"/><line style="stroke:#C0C0C0;stroke-width:1;" x1="128" x2="128" y1="76.2969" y2="542"/><line style="stroke:#C0C0C0;stroke-width:1;" x1="144" x2="144" y1="76.2969" y2="542"/><line style="stroke:#C0C0C0;stroke-width:1;" x1="160" x2="160" y1="76.2969" y2="542"/><line style="stroke:#C0C0C0;stroke-width:1;" x1="176" x2="176" y1="76.2969" y2="542"/><line style="stroke:#C0C0C0;stroke-width:1;" x1="192" x2="192" y1="76.2969" y2="542"/><line style="stroke:#C0C0C0;stroke-width:1;" x1="208" x2="208" y1="76.2969" y2="542"/><line style="stroke:#C0C0C0;stroke-width:1;" x1="224" x2="224" y1="76.2969" y2="542"/><line style="stroke:#C0C0C0;stroke-width:1;" x1="240" x2="240" y1="76.2969" y2="542"/><line style="stroke:#C0C0C0;stroke-width:1;" x1="256" x2="256" y1="76.2969" y2="542"/><line style="stroke:#C0C0C0;stroke-width:1;" x1="272" x2="272" y1="76.2969" y2="542"/><line style="stroke:#C0C0C0;stroke-width:1;" x1="288" x2="288" y1="76.2969" y2="542"/><line style="stroke:#C0C0C0;stroke-width:1;" x1="304" x2="304" y1="76.2969" y2="542"/><line style="stroke:#C0C0C0;stroke-width:1;" x1="320" x2="320" y1="76.2969" y2="542"/><line style="stroke:#C0C0C0;stroke-width:1;" x1="336" x2="336" y1="76.2969" y2="542"/><line style="stroke:#C0C0C0;stroke-width:1;" x1="352" x2="352" y1="76.2969" y2="542"/><line style="stroke:#C0C0C0;stroke-width:1;" x1="368" x2="368" y1="76.2969" y2="542"/><line style="stroke:#C0C0C0;stroke-width:1;" x1="384" x2="384" y1="76.2969" y2="542"/><line style="stroke:#C0C0C0;stroke-width:1;" x1="400" x2="400" y1="76.2969" y2="542"/><line style="stroke:#C0C0C0;stroke-width:1;" x1="416" x2="416" y1="76.2969" y2="542"/><line style="stroke:#C0C0C0;stroke-width:1;" x1="432" x2="432" y1="76.2969" y2="542"/><line style="stroke:#C0C0C0;stroke-width:1;" x1="448" x2="448" y1="76.2969" y2="542"/><line style="stroke:#C0C0C0;stroke-width:1;" x1="464" x2="464" y1="76.2969" y2="542"/><line style="stroke:#C0C0C0;stroke-width:1;" x1="480" x2="480" y1="76.2969" y2="542"/><line style="stroke:#C0C0C0;stroke-width:1;" x1="0" x2="480" y1="76.2969" y2="76.2969"/><line style="stroke:#C0C0C0;stroke-width:1;" x1="0" x2="480" y1="542" y2="542"/><path d="M72,132.9063 L72,183.918 L77,183.918" fill="none" style="stroke:#181818;stroke-width:1.5;"/><polygon fill="#181818" points="76,179.918,80,183.918,76,187.918,76,179.918" style="stroke:#181818;stroke-width:1;"/><path d="M152,199.3203 L152,250.332 L157,250.332" fill="none" style="stroke:#181818;stroke-width:1.5;"/><polygon fill="#181818" points="156,246.332,160,250.332,156,254.332,156,246.332" style="stroke:#181818;stroke-width:1;"/><path d="M152,199.3203 L152,267.1367 L157,267.1367" fill="none" style="stroke:#181818;stroke-width:1.5;"/><polygon fill="#181818" points="156,263.1367,160,267.1367,156,271.1367,156,263.1367" style="stroke:#181818;stroke-width:1;"/><path d="M152,199.3203 L152,283.9414 L157,283.9414" fill="none" style="stroke:#181818;stroke-width:1.5;"/><polygon fill="#181818" points="156,279.9414,160,283.9414,156,287.9414,156,279.9414" style="stroke:#181818;stroke-width:1;"/><path d="M232,290.3438 L232,300.7461 L253,300.7461" fill="none" style="stroke:#181818;stroke-width:1.5;"/><polygon fill="#181818" points="252,296.7461,256,300.7461,252,304.7461,252,296.7461" style="stroke:#181818;stroke-width:1;"/><path d="M248,273.5391 L248,300.7461 L253,300.7461" fill="none" style="stroke:#181818;stroke-width:1.5;"/><polygon fill="#181818" points="252,296.7461,256,300.7461,252,304.7461,252,296.7461" style="stroke:#181818;stroke-width:1;"/><path d="M328,307.1484 L328,317.5508 L333,317.5508" fill="none" style="stroke:#181818;stroke-width:1.5;"/><polygon fill="#181818" points="332,313.5508,336,317.5508,332,321.5508,332,313.5508" style="stroke:#181818;stroke-width:1;"/><path d="M248,273.5391 L248,334.3555 L253,334.3555" fill="none" style="stroke:#181818;stroke-width:1.5;"/><polygon fill="#181818" points="252,330.3555,256,334.3555,252,338.3555,252,330.3555" style="stroke:#181818;stroke-width:1;"/><path d="M152,199.3203 L152,351.1602 L157,351.1602" fill="none" style="stroke:#181818;stroke-width:1.5;"/><polygon fill="#181818" points="156,347.1602,160,351.1602,156,355.1602,156,347.1602" style="stroke:#181818;stroke-width:1;"/><path d="M232,357.5625 L232,400.7695 L237,400.7695" fill="none" style="stroke:#181818;stroke-width:1.5;"/><polygon fill="#181818" points="236,396.7695,240,400.7695,236,404.7695,236,396.7695" style="stroke:#181818;stroke-width:1;"/><path d="M312,407.1719 L312,417.5742 L317,417.5742" fill="none" style="stroke:#181818;stroke-width:1.5;"/><polygon fill="#181818" points="316,413.5742,320,417.5742,316,421.5742,316,413.5742" style="stroke:#181818;stroke-width:1;"/><path d="M360,423.9766 L360,467.1836 L365,467.1836" fill="none" style="stroke:#181818;stroke-width:1.5;"/><polygon fill="#181818" points="364,463.1836,368,467.1836,364,471.1836,364,463.1836" style="stroke:#181818;stroke-width:1;"/><path d="M392,473.5859 L392,533.5977 L397,533.5977" fill="none" style="stroke:#181818;stroke-width:1.5;"/><polygon fill="#181818" points="396,529.5977,400,533.5977,396,537.5977,396,529.5977" style="stroke:#181818;stroke-width:1;"/><line style="stroke:#181818;stroke-width:1;" x1="0" x2="5" y1="92.6992" y2="92.6992"/><line style="stroke:#181818;stroke-width:1;" x1="58.9997" x2="479" y1="92.6992" y2="92.6992"/><rect fill="#95A5A6" height="12.8047" style="stroke:none;stroke-width:1;" width="76" x="2" y="111.1016"/><rect fill="none" height="12.8047" style="stroke:#95A5A6;stroke-width:1;" width="76" x="2" y="111.1016"/><polygon fill="#000000" points="72,127.9063,77,132.9063,72,137.9063,67,132.9063" style="stroke:#000000;stroke-width:1;"/><line style="stroke:#181818;stroke-width:1;" x1="0" x2="5" y1="159.1133" y2="159.1133"/><line style="stroke:#181818;stroke-width:1;" x1="58.9997" x2="479" y1="159.1133" y2="159.1133"/><rect fill="#9B59B6" height="12.8047" style="stroke:none;stroke-width:1;" width="76" x="82" y="177.5156"/><rect fill="none" height="12.8047" style="stroke:#9B59B6;stroke-width:1;" width="76" x="82" y="177.5156"/><polygon fill="#000000" points="152,194.3203,157,199.3203,152,204.3203,147,199.3203" style="stroke:#000000;stroke-width:1;"/><line style="stroke:#181818;stroke-width:1;" x1="0" x2="5" y1="225.5273" y2="225.5273"/><line style="stroke:#181818;stroke-width:1;" x1="36.9998" x2="479" y1="225.5273" y2="225.5273"/><rect fill="#3498DB" height="12.8047" style="stroke:none;stroke-width:1;" width="60" x="162" y="243.9297"/><rect fill="none" height="12.8047" style="stroke:#3498DB;stroke-width:1;" width="60" x="162" y="243.9297"/><rect fill="#2ECC71" height="12.8047" style="stroke:none;stroke-width:1;" width="92" x="162" y="260.7344"/><rect fill="none" height="12.8047" style="stroke:#2ECC71;stroke-width:1;" width="92" x="162" y="260.7344"/><rect fill="#9B59B6" height="12.8047" style="stroke:none;stroke-width:1;" width="76" x="162" y="277.5391"/><rect fill="none" height="12.8047" style="stroke:#9B59B6;stroke-width:1;" width="76" x="162" y="277.5391"/><rect fill="#E67E22" height="12.8047" style="stroke:none;stroke-width:1;" width="76" x="258" y="294.3438"/><rect fill="none" height="12.8047" style="stroke:#E67E22;stroke-width:1;" width="76" x="258" y="294.3438"/><rect fill="#3498DB" height="12.8047" style="stroke:none;stroke-width:1;" width="60" x="338" y="311.1484"/><rect fill="none" height="12.8047" style="stroke:#3498DB;stroke-width:1;" width="60" x="338" y="311.1484"/><rect fill="#2ECC71" height="12.8047" style="stroke:none;stroke-width:1;" width="60" x="258" y="327.9531"/><rect fill="none" height="12.8047" style="stroke:#2ECC71;stroke-width:1;" width="60" x="258" y="327.9531"/><rect fill="#9B59B6" height="12.8047" style="stroke:none;stroke-width:1;" width="76" x="162" y="344.7578"/><rect fill="none" height="12.8047" style="stroke:#9B59B6;stroke-width:1;" width="76" x="162" y="344.7578"/><line style="stroke:#181818;stroke-width:1;" x1="0" x2="5" y1="375.9648" y2="375.9648"/><line style="stroke:#181818;stroke-width:1;" x1="69.9996" x2="479" y1="375.9648" y2="375.9648"/><rect fill="#2ECC71" height="12.8047" style="stroke:none;stroke-width:1;" width="76" x="242" y="394.3672"/><rect fill="none" height="12.8047" style="stroke:#2ECC71;stroke-width:1;" width="76" x="242" y="394.3672"/><rect fill="#E74C3C" height="12.8047" style="stroke:none;stroke-width:1;" width="44" x="322" y="411.1719"/><rect fill="none" height="12.8047" style="stroke:#E74C3C;stroke-width:1;" width="44" x="322" y="411.1719"/><line style="stroke:#181818;stroke-width:1;" x1="0" x2="5" y1="442.3789" y2="442.3789"/><line style="stroke:#181818;stroke-width:1;" x1="36.9998" x2="479" y1="442.3789" y2="442.3789"/><rect fill="#F1C40F" height="12.8047" style="stroke:none;stroke-width:1;" width="28" x="370" y="460.7813"/><rect fill="none" height="12.8047" style="stroke:#F1C40F;stroke-width:1;" width="28" x="370" y="460.7813"/><polygon fill="#000000" points="392,477.5859,397,482.5859,392,487.5859,387,482.5859" style="stroke:#000000;stroke-width:1;"/><line style="stroke:#181818;stroke-width:1;" x1="0" x2="5" y1="508.793" y2="508.793"/><line style="stroke:#181818;stroke-width:1;" x1="58.9997" x2="479" y1="508.793" y2="508.793"/><rect fill="#95A5A6" height="12.8047" style="stroke:none;stroke-width:1;" width="76" x="402" y="527.1953"/><rect fill="none" height="12.8047" style="stroke:#95A5A6;stroke-width:1;" width="76" x="402" y="527.1953"/><text fill="#000000" font-family="sans-serif" font-size="11" lengthAdjust="spacing" textLength="43.9997" x="10" y="96.5073">&#38656;&#27714;&#20998;&#26512;</text><text fill="#000000" font-family="sans-serif" font-size="11" lengthAdjust="spacing" textLength="214.4719" x="82" y="121.312">&#38656;&#27714;&#20998;&#26512; {&#20313;&#26216;&#28799;, &#29579;&#38125;&#38647;, &#24352;&#37995;&#26704;, &#26446;&#24503;&#36713;}</text><text fill="#000000" font-family="sans-serif" font-size="11" lengthAdjust="spacing" textLength="43.9997" x="80" y="138.1167">&#38656;&#27714;&#35780;&#23457;</text><text fill="#000000" font-family="sans-serif" font-size="11" lengthAdjust="spacing" textLength="43.9997" x="10" y="162.9214">&#31995;&#32479;&#35774;&#35745;</text><text fill="#000000" font-family="sans-serif" font-size="11" lengthAdjust="spacing" textLength="134.4861" x="162" y="187.7261">&#31995;&#32479;&#35774;&#35745; {&#20313;&#26216;&#28799;, &#29579;&#38125;&#38647;}</text><text fill="#000000" font-family="sans-serif" font-size="11" lengthAdjust="spacing" textLength="43.9997" x="160" y="204.5308">&#35774;&#35745;&#35780;&#23457;</text><text fill="#000000" font-family="sans-serif" font-size="11" lengthAdjust="spacing" textLength="21.9998" x="10" y="229.3354">&#23454;&#29616;</text><text fill="#000000" font-family="sans-serif" font-size="11" lengthAdjust="spacing" textLength="105.493" x="226" y="254.1401">&#27880;&#20876;&#19982;&#30331;&#24405; {&#20313;&#26216;&#28799;}</text><text fill="#000000" font-family="sans-serif" font-size="11" lengthAdjust="spacing" textLength="94.4931" x="258" y="270.9448">&#35746;&#21333;&#31649;&#29702; {&#29579;&#38125;&#38647;}</text><text fill="#000000" font-family="sans-serif" font-size="11" lengthAdjust="spacing" textLength="94.4931" x="242" y="287.7495">&#20179;&#24211;&#31649;&#29702; {&#24352;&#37995;&#26704;}</text><text fill="#000000" font-family="sans-serif" font-size="11" lengthAdjust="spacing" textLength="94.4931" x="338" y="304.5542">&#37197;&#36865;&#31649;&#29702; {&#26446;&#24503;&#36713;}</text><text fill="#000000" font-family="sans-serif" font-size="11" lengthAdjust="spacing" textLength="127.4929" x="402" y="321.3589">&#23454;&#26102;&#36319;&#36394;&#19982;&#36890;&#30693; {&#20313;&#26216;&#28799;}</text><text fill="#000000" font-family="sans-serif" font-size="11" lengthAdjust="spacing" textLength="149.4927" x="322" y="338.1636">&#25253;&#34920;&#29983;&#25104;&#19982;&#25968;&#25454;&#20998;&#26512; {&#29579;&#38125;&#38647;}</text><text fill="#000000" font-family="sans-serif" font-size="11" lengthAdjust="spacing" textLength="127.4929" x="242" y="354.9683">&#26435;&#38480;&#31649;&#29702;&#19982;&#23433;&#20840; {&#24352;&#37995;&#26704;}</text><text fill="#000000" font-family="sans-serif" font-size="11" lengthAdjust="spacing" textLength="54.9996" x="10" y="379.7729">&#38598;&#25104;&#19982;&#27979;&#35797;</text><text fill="#000000" font-family="sans-serif" font-size="11" lengthAdjust="spacing" textLength="236.9819" x="322" y="404.5776">&#27169;&#22359;&#38598;&#25104;&#19982;&#27979;&#35797; {&#20313;&#26216;&#28799;,&#29579;&#38125;&#38647;,&#24352;&#37995;&#26704;,&#26446;&#24503;&#36713;}</text><text fill="#000000" font-family="sans-serif" font-size="11" lengthAdjust="spacing" textLength="203.9822" x="370" y="421.3823">&#39564;&#25910;&#27979;&#35797; {&#20313;&#26216;&#28799;,&#29579;&#38125;&#38647;,&#24352;&#37995;&#26704;,&#26446;&#24503;&#36713;}</text><text fill="#000000" font-family="sans-serif" font-size="11" lengthAdjust="spacing" textLength="21.9998" x="10" y="446.187">&#37096;&#32626;</text><text fill="#000000" font-family="sans-serif" font-size="11" lengthAdjust="spacing" textLength="94.4931" x="402" y="470.9917">&#37096;&#32626;&#19978;&#32447; {&#26446;&#24503;&#36713;}</text><text fill="#000000" font-family="sans-serif" font-size="11" lengthAdjust="spacing" textLength="43.9997" x="400" y="487.7964">&#29256;&#26412;&#21457;&#24067;</text><text fill="#000000" font-family="sans-serif" font-size="11" lengthAdjust="spacing" textLength="43.9997" x="10" y="512.6011">&#36816;&#34892;&#32500;&#25252;</text><text fill="#000000" font-family="sans-serif" font-size="11" lengthAdjust="spacing" textLength="127.4929" x="482" y="537.4058">&#31995;&#32479;&#32500;&#25252;&#19982;&#25903;&#25345; {&#24352;&#37995;&#26704;}</text><!--SRC=[fPRTJXf15CVlzoacwKKr4ICWe5oPsDR4Q69QzSPuCIm3ReExPdSnDKqJhTMeHOeHOYb-bAOsrBQhhQrVL7aPTsVtBRgoWBCZ8nUz0VRmF-VypkoPCzEdg51Mur1KLKuLr0G2Ll4S5pIpKj0llk3iUxnwhXUkk15PUevu5LJb2f14uElo1JnUhySRugQ4A08nIL8ZqWldGKQAb9Hvf3JCdCS3hErvu-ThVMNPsCq0ZuUR80sJDq5VNb_cZNm9BrGw04w_jJP_M8NJ3g3__MXjV3EAcGvWxAJrgrFpykiha82AZH80KJYdqB441V1IGf9H50WYUD0RW04Oh8lCmpUwLfm4Kt1c1eaAW2fmkpzK01AZLMPyNCRbFLExChLYbPaqi9bfEhSNJHS9z4Q2jAYsrBTmDUmQt8IZQrQBAmvHYwxjulHHjGhZkAGlfwxFqZXVrYzpL25r-kuQ_HqrLO2_kxSd6ccY8sfmuTQXREidVJs7jIBEB3iGTvOmM8DmIoa27-Bva9SMjKn_NTxKBpR9z8rMez-WMyfuWsvHo_JMqherlq2cPxUtIqgbHy4Gylbe4P7UnLLl8ARQjOWDMBjxZAqJytJFF3kmNx4r_m7lxRTe78OFetqOQd8ZaCWDCcDjtooMS7RFMCdOVaRko5ZNoAbofwSQZNsV9wF5xlLfkOh6pgALppXMsrlNLlMbKelMO_WmUf2XRjMCD_Evi5ohwSzRyp3d38fIKT_PelwXvzxjgBwTrCnEPaHahNPpDL5DytflzzX1oiYU_0Utlxu3NO7e7HZgvlqyBI8fczP1BlvY2L_-Sex5wi_hipLyKM6C1LyToYMbe69UlhihHel8xKJIriS2Nbqnjh_hxpRqiqNgZ2JZ4EXc9MCMKxZysrZxJ9oHZk6csEoXaLfeqUGC7yP1pb2JjJM3xRC_dSiEDvAmlyU6Xy0iaXN1HlDstbnfEdrjeqa41g48kaB06mhx0s5_48oDzbTlFErSsy38471kDo0gAAeiH9AgxT_E3S9P29ucHLMOHc4m84EO61-k6y1ZSLQG9N4QYIetE3uS1i-I4TiRgWYC3tEFK0mc4wgjugMe8CR3TiOddXvk28hn98pRySHa8i7rItOqUSvv-WS0]--></g></svg>